<svg width="89" height="30" viewBox="0 0 89 30" fill="none" xmlns="http://www.w3.org/2000/svg">
<g clip-path="url(#clip0_2_110)">
<path d="M85.9476 18.0445L88.4086 19.6852C87.6099 20.8616 85.6995 22.8801 82.3965 22.8801C78.2951 22.8801 75.2406 19.7068 75.2406 15.67C75.2406 11.3742 78.3275 8.45996 82.0512 8.45996C85.7965 8.45996 87.6313 11.4389 88.2251 13.0471L88.5489 13.8675L78.8996 17.861C79.6335 19.3075 80.7777 20.0414 82.3965 20.0414C84.0157 20.0414 85.1381 19.2427 85.9476 18.0445ZM78.3815 15.4435L84.8252 12.7666C84.4689 11.8708 83.4113 11.2341 82.1483 11.2341C80.5402 11.2341 78.306 12.6588 78.3815 15.4435Z" fill="#FF302F"/>
<path d="M70.5886 1.10979H73.697V22.2219H70.5886V1.10962V1.10979Z" fill="#20B15A"/>
<path d="M65.6884 9.0214H68.689V21.8441C68.689 27.1652 65.5481 29.3563 61.8351 29.3563C58.3381 29.3563 56.2335 27.0033 55.4455 25.093L58.1977 23.9487C58.6941 25.1252 59.8923 26.5177 61.8351 26.5177C64.2204 26.5177 65.6884 25.0389 65.6884 22.2759V21.2398H65.5805C64.868 22.1031 63.5081 22.8802 61.7812 22.8802C58.1761 22.8802 54.8732 19.7393 54.8732 15.6919C54.8732 11.6226 58.1761 8.44946 61.7812 8.44946C63.4973 8.44946 64.868 9.21581 65.5805 10.0577H65.6884V9.02158V9.0214ZM65.9041 15.6919C65.9041 13.1445 64.2096 11.288 62.0509 11.288C59.8706 11.288 58.0357 13.1445 58.0357 15.6919C58.0357 18.2066 59.8706 20.0307 62.0509 20.0307C64.2098 20.0416 65.9043 18.2066 65.9043 15.6919H65.9041Z" fill="#3686F7"/>
<path d="M37.8088 15.6377C37.8088 19.7933 34.5709 22.8477 30.5988 22.8477C26.6269 22.8477 23.3888 19.7825 23.3888 15.6377C23.3888 11.4607 26.6269 8.41699 30.5988 8.41699C34.5709 8.41699 37.8088 11.4607 37.8088 15.6377ZM34.6571 15.6377C34.6571 13.0475 32.779 11.2663 30.5988 11.2663C28.4186 11.2663 26.5404 13.0475 26.5404 15.6377C26.5404 18.2065 28.4186 20.0092 30.5988 20.0092C32.7791 20.0092 34.6571 18.2065 34.6571 15.6377Z" fill="#FF302F"/>
<path d="M53.5565 15.67C53.5565 19.8255 50.3184 22.88 46.3465 22.88C42.3744 22.88 39.1365 19.8253 39.1365 15.67C39.1365 11.4929 42.3744 8.45996 46.3465 8.45996C50.3184 8.45996 53.5565 11.4822 53.5565 15.67ZM50.3939 15.67C50.3939 13.0797 48.5159 11.2985 46.3356 11.2985C44.1554 11.2985 42.2772 13.0797 42.2772 15.67C42.2772 18.2388 44.1554 20.0414 46.3356 20.0414C48.5266 20.0414 50.3939 18.228 50.3939 15.67Z" fill="#FFBA40"/>
<path d="M11.5376 19.7177C7.01508 19.7177 3.47497 16.0694 3.47497 11.5469C3.47497 7.02457 7.01508 3.37634 11.5376 3.37634C13.977 3.37634 15.7578 4.33691 17.0746 5.56742L19.2442 3.398C17.4093 1.63868 14.9592 0.300049 11.5376 0.300049C5.34222 0.300222 0.128906 5.35171 0.128906 11.5469C0.128906 17.7425 5.34222 22.7938 11.5376 22.7938C14.8837 22.7938 17.4093 21.6929 19.3845 19.6421C21.4136 17.6129 22.0396 14.7634 22.0396 12.4536C22.0396 11.7304 21.9533 10.9857 21.8561 10.4353H11.5376V13.4358H18.8879C18.6721 15.314 18.0785 16.5984 17.2042 17.4725C16.1464 18.5412 14.4735 19.7177 11.5376 19.7177Z" fill="#3686F7"/>
</g>
<defs>
<clipPath id="clip0_2_110">
<rect width="88.7107" height="29.1082" fill="white" transform="translate(0 0.255371)"/>
</clipPath>
</defs>
</svg>
