<svg width="39" height="39" viewBox="0 0 39 39" fill="none" xmlns="http://www.w3.org/2000/svg">
<path d="M20.7363 33.2075C20.6027 33.1492 20.4872 33.0548 20.4033 32.9346L16.2399 27.4546L10.1606 27.8052C9.16753 27.8652 8.3123 27.1081 8.25279 26.114C8.25193 26.1019 8.25107 26.0897 8.2507 26.0764C8.23684 25.6659 8.35256 25.2635 8.58186 24.9232L12.1286 19.7851L10.0432 13.9429C9.70821 12.976 10.2021 11.9169 11.1586 11.5509C11.5332 11.4039 11.9458 11.3883 12.3297 11.5072L18.1301 13.2103L22.8799 9.31446C23.6354 8.67294 24.7683 8.76446 25.4109 9.52048C25.6897 9.84796 25.8405 10.2648 25.8379 10.6938L25.9093 16.8588L30.9561 20.2256C31.3649 20.4959 31.6459 20.9225 31.7349 21.4047C31.8935 22.3208 31.3847 23.2212 30.5186 23.5587L24.7431 25.6778L23.889 28.9396C23.7549 29.4263 23.2565 29.7183 22.7669 29.5933C22.2873 29.4664 22.0014 28.9748 22.1287 28.4941L22.9732 25.2277C23.1367 24.6332 23.5742 24.152 24.151 23.9358L29.9492 21.7933L24.9074 18.4158C24.3979 18.0697 24.101 17.4866 24.1197 16.8716L24.0394 10.7287L19.2148 14.6812C18.7552 15.0919 18.1182 15.2382 17.5256 15.0704L11.7252 13.3673L13.785 19.1661C13.9921 19.74 13.9082 20.3769 13.5619 20.8784L10.0152 26.0166L16.0885 25.6762C16.6959 25.6299 17.2834 25.9039 17.6384 26.3989L21.7943 31.8754C22.0448 32.2158 22.0348 32.6832 21.7697 33.0134C21.5121 33.347 21.0597 33.459 20.6754 33.2877L20.7363 33.2075Z" fill="white"/>
</svg>
