<svg width="158" height="30" viewBox="0 0 158 30" fill="none" xmlns="http://www.w3.org/2000/svg">
<g clip-path="url(#clip0_2_102)">
<path d="M3.90049 22.5684C3.32253 22.5696 2.7546 22.4174 2.25471 22.1273C1.75483 21.8372 1.34091 21.4196 1.05524 20.9172C0.773889 20.4183 0.633552 19.8523 0.649259 19.2798C0.664966 18.7073 0.836124 18.1498 1.1444 17.6672L7.00404 8.46591C7.30391 7.97136 7.72967 7.56527 8.23784 7.28911C8.74601 7.01296 9.31838 6.87663 9.89647 6.89406C10.4742 6.90789 11.0378 7.07496 11.5297 7.37817C12.0216 7.68139 12.4241 8.10985 12.6961 8.61972C12.9639 9.12565 13.089 9.69494 13.058 10.2666C13.027 10.8382 12.841 11.3906 12.5199 11.8645L6.66393 21.0667C6.36693 21.5295 5.9579 21.9097 5.47477 22.1723C4.99164 22.4349 4.45004 22.5712 3.90018 22.5687L3.90049 22.5684Z" fill="#F62B54"/>
<path d="M13.951 22.5683C12.7692 22.5683 11.6818 21.9365 11.1107 20.9208C10.83 20.4233 10.6901 19.8588 10.7058 19.2878C10.7216 18.7168 10.8925 18.1609 11.2002 17.6796L17.0485 8.4992C17.3439 7.99768 17.7681 7.58432 18.2772 7.30201C18.7862 7.0197 19.3615 6.8787 19.9433 6.89365C21.1353 6.92001 22.2153 7.58674 22.7616 8.62942C23.0282 9.14013 23.1494 9.7142 23.1122 10.2891C23.0749 10.8639 22.8805 11.4175 22.5502 11.8895L16.7035 21.0697C16.4074 21.5304 16 21.9092 15.519 22.1711C15.038 22.4329 14.4987 22.5694 13.951 22.568V22.5683Z" fill="#FFCC00"/>
<path d="M23.777 22.6451C25.4432 22.6451 26.7939 21.3228 26.7939 19.6917C26.7939 18.0606 25.4432 16.7383 23.777 16.7383C22.1109 16.7383 20.7602 18.0606 20.7602 19.6917C20.7602 21.3228 22.1109 22.6451 23.777 22.6451Z" fill="#00CA72"/>
<path d="M154.83 16.9097C155.742 16.9097 156.286 17.5578 156.286 18.6191V22.2564H157.524V18.5358C157.524 16.7311 156.674 15.6844 155.075 15.6844C154.449 15.6844 153.456 15.8557 152.864 17.0065C152.726 16.6671 152.499 16.3712 152.207 16.1504C151.915 15.9295 151.568 15.792 151.204 15.7524C150.975 15.7105 150.741 15.6968 150.509 15.7117C150 15.7524 149.094 16.0693 148.755 16.7866V15.822H147.516V22.2564H148.755V18.7843C148.755 17.4334 149.639 16.9097 150.524 16.9097C151.353 16.9097 151.898 17.544 151.898 18.6054V22.2564H153.13V18.7843C153.13 17.7088 153.775 16.8972 154.83 16.9097H154.83ZM142.968 21.1813C143.249 21.187 143.528 21.1347 143.788 21.0274C144.047 20.9201 144.282 20.7604 144.477 20.5581C144.673 20.3543 144.827 20.1129 144.928 19.8483C145.029 19.5838 145.075 19.3016 145.064 19.0187C145.064 17.7226 144.111 16.9097 142.968 16.9097C141.825 16.9097 140.873 17.7226 140.873 19.0187C140.861 19.3008 140.907 19.5823 141.008 19.8462C141.108 20.1101 141.26 20.351 141.456 20.5544C141.65 20.7565 141.884 20.9165 142.142 21.0244C142.401 21.1322 142.679 21.1856 142.959 21.1813H142.968ZM142.968 22.3879C141.158 22.3879 139.648 21.0511 139.648 19.0113C139.648 16.9716 141.158 15.6768 142.968 15.6768C144.778 15.6768 146.302 16.9716 146.302 19.0113C146.302 21.0511 144.77 22.394 142.96 22.394L142.968 22.3879ZM133.273 19.0113L133.261 19.0187C133.261 16.979 134.811 15.6844 136.633 15.6768C137.091 15.6679 137.546 15.7553 137.968 15.9332C138.389 16.1111 138.769 16.3756 139.083 16.7096L138.144 17.5094C137.945 17.3136 137.709 17.1593 137.449 17.0552C137.19 16.9512 136.913 16.8996 136.634 16.9033C135.491 16.9033 134.498 17.7165 134.498 19.0113C134.498 19.8864 135.018 20.6751 135.817 21.01C136.207 21.1735 136.637 21.2162 137.052 21.1326C137.467 21.049 137.848 20.8429 138.144 20.5409L139.096 21.3403C138.782 21.6778 138.401 21.9455 137.976 22.126C137.552 22.3065 137.094 22.3959 136.633 22.3882C134.825 22.3882 133.273 21.0511 133.273 19.0113ZM129.309 21.0213C129.306 20.7942 129.394 20.5753 129.553 20.4128C129.712 20.2503 129.928 20.1575 130.156 20.1548C130.383 20.1575 130.6 20.2503 130.758 20.4128C130.917 20.5753 131.005 20.7942 131.002 21.0213C130.991 21.2391 130.897 21.4445 130.74 21.5955C130.583 21.7466 130.374 21.8319 130.156 21.8342C129.938 21.8319 129.729 21.7466 129.571 21.5955C129.414 21.4445 129.32 21.2391 129.309 21.0213ZM132.696 7.64228H128.287L125.197 15.6087L122.124 7.64228H117.715L123.074 20.2305L119.741 28.553H124.117L132.696 7.64228ZM105.885 14.6439C105.885 16.6551 107.643 17.9785 109.37 17.9785C111.067 17.9785 112.734 16.7467 112.734 14.6427C112.734 12.5386 111.067 11.3059 109.37 11.3059C107.643 11.3059 105.885 12.6305 105.885 14.6427V14.6439ZM112.734 21.6728V20.0801C111.841 21.4335 109.755 21.9448 108.685 21.9448C105.142 21.9448 101.598 19.1517 101.598 14.6427C101.598 10.1352 105.141 7.3417 108.685 7.3417C109.578 7.3417 111.663 7.63983 112.734 9.20402V7.64749H116.844V21.6755L112.735 21.6743V21.6731L112.734 21.6728ZM100.428 21.6728H96.3193V19.9299C95.6326 21.2211 93.9676 21.9736 92.2395 21.9736C88.6656 21.9736 85.5085 19.1192 85.5085 14.6996C85.5085 10.1971 88.6656 7.33925 92.2395 7.33925C93.9652 7.33925 95.6351 8.0593 96.319 9.3517V0H100.428V21.6731V21.6728ZM96.2295 14.6117C96.2295 12.5086 94.7113 11.2759 93.0144 11.2759C91.2566 11.2759 89.7966 12.598 89.7966 14.6117C89.7966 16.6897 91.2566 18.0057 93.0132 18.0057C94.7425 18.0082 96.2295 16.6254 96.2295 14.6117Z" fill="#333333"/>
<path d="M75.3488 14.2491C75.3488 12.1166 76.4513 11.395 77.9097 11.395C79.3088 11.395 80.3221 12.3261 80.3221 14.1881V21.6705H84.4609V13.2882C84.4609 9.29336 82.4944 7.33913 79.3673 7.33913C77.7299 7.33913 76.0925 8.27059 75.3473 9.6831V7.64216H71.2109V21.6705H75.3488V14.2491ZM62.8066 21.9113C58.876 21.9113 55.5975 19.0275 55.5975 14.6104C55.5975 10.1908 58.8724 7.33545 62.8066 7.33545C66.7408 7.33545 70.0438 10.1908 70.0438 14.6104C70.0438 19.0299 66.7368 21.9125 62.8066 21.9125V21.9113ZM62.8066 17.827C64.5322 17.827 65.9634 16.5631 65.9634 14.6116C65.9634 12.7183 64.5335 11.4259 62.8066 11.4259C62.3908 11.4195 61.978 11.4977 61.5934 11.6559C61.2088 11.8141 60.8604 12.0489 60.5695 12.346C60.2769 12.6448 60.0473 12.9992 59.8944 13.3884C59.7415 13.7776 59.6684 14.1936 59.6794 14.6116C59.6807 16.5655 61.1094 17.827 62.8066 17.827Z" fill="#333333"/>
<path d="M48.177 11.3964C49.3974 11.3964 50.4702 12.3585 50.4702 14.1896V21.6732H54.579V13.7055C54.579 9.46978 52.5197 7.33691 49.2185 7.33691C48.238 7.33691 46.3904 7.63504 45.0499 9.8298C44.2753 8.2071 42.7868 7.36541 40.5868 7.36541C39.8231 7.36154 39.0743 7.57773 38.4302 7.98813C37.786 8.39854 37.2737 8.98579 36.9544 9.67967V7.64362H32.8131V21.6719H36.9508V14.2493C36.9508 12.1168 38.1126 11.3952 39.3628 11.3952C40.5547 11.3952 41.6249 12.3264 41.6559 14.0992V21.6719H45.7948V14.2493C45.7948 12.2096 46.8672 11.3977 48.177 11.3977V11.3964Z" fill="#333333"/>
</g>
<defs>
<clipPath id="clip0_2_102">
<rect width="156.878" height="29.1082" fill="white" transform="translate(0.647949)"/>
</clipPath>
</defs>
</svg>
