<svg width="25" height="25" viewBox="0 0 25 25" fill="none" xmlns="http://www.w3.org/2000/svg">
<path fill-rule="evenodd" clip-rule="evenodd" d="M24.295 11.0471C24.295 11.5413 23.8932 11.9431 23.399 11.9431H23.3884V11.9218C22.8882 11.9218 22.4829 11.5176 22.4817 11.0175V11.0151V8.00249C22.4817 4.38425 20.5025 2.40507 16.895 2.40507H8.00639C4.39644 2.40507 2.4054 4.39611 2.4054 8.00249V16.8911C2.4054 20.4868 4.39644 22.4778 8.00283 22.4778H16.8914C20.4978 22.4778 22.4782 20.4868 22.4782 16.8911C22.4782 16.3909 22.8835 15.9844 23.3848 15.9844C23.8861 15.9844 24.2914 16.3909 24.2914 16.8911C24.295 21.4598 21.4601 24.2947 16.895 24.2947H8.00283C3.42699 24.2947 0.592133 21.4598 0.592133 16.8946V8.00605C0.592133 3.42666 3.42699 0.591797 8.00283 0.591797H16.8914C21.4388 0.591797 24.295 3.42666 24.295 8.00249V11.0471ZM11.0375 13.9999L16.0341 9.00216C16.3813 8.65491 16.9443 8.65491 17.2915 9.00216C17.6388 9.3494 17.6388 9.91235 17.2915 10.2596L11.6656 15.8855C11.4985 16.0514 11.2722 16.145 11.0375 16.145C10.8005 16.145 10.5753 16.0514 10.4082 15.8855L7.59585 13.0719C7.24861 12.7247 7.24861 12.1617 7.59585 11.8145C7.9431 11.4673 8.50604 11.4673 8.85329 11.8145L11.0375 13.9999Z" fill="white"/>
</svg>
