<svg width="34" height="34" viewBox="0 0 34 34" fill="none" xmlns="http://www.w3.org/2000/svg">
<path fill-rule="evenodd" clip-rule="evenodd" d="M16.1893 5.82631L14.5443 7.47135C13.1699 6.40874 11.1821 6.50762 9.92259 7.76717L7.75881 9.93095C6.49926 11.1905 6.39954 13.1774 7.46215 14.5518L5.82633 16.1893C4.06229 17.9533 4.05894 20.8194 5.81795 22.5784L8.72337 25.4838C8.93456 25.695 9.23708 25.7863 9.53039 25.726C12.3948 25.1394 15.1954 23.8555 17.6307 22.0152C17.9953 21.7446 18.0883 21.2543 17.867 20.8655C17.3743 19.999 17.5167 18.943 18.2215 18.2383C18.9188 17.541 19.9906 17.4028 20.8261 17.8997C21.1789 18.11 21.6256 18.0489 21.9088 17.7656C21.9382 17.7363 21.965 17.7061 21.9901 17.6726C23.8447 15.2231 25.1335 12.409 25.7185 9.53791C25.7771 9.24461 25.6866 8.94292 25.4754 8.73174L22.57 5.82631C20.811 4.0673 17.9483 4.0673 16.1893 5.82631ZM23.8748 9.64518C23.3536 11.8777 22.3656 14.0641 20.9887 16.0292C19.6018 15.5608 18.038 15.9077 16.9645 16.9812C15.8994 18.0464 15.5466 19.6126 15.9966 21.0063C14.0432 22.3747 11.8651 23.3611 9.63683 23.8832L7.07499 21.3214C6.00903 20.2554 6.01238 18.5173 7.08421 17.4455L9.32676 15.1996C9.49436 15.032 9.58738 14.8066 9.58738 14.5702C9.58571 14.3339 9.49269 14.1085 9.32592 13.9417L9.01502 13.6325C8.34124 12.9587 8.34208 11.8618 9.01585 11.188L11.1796 9.02421C11.7436 8.46022 12.6051 8.36804 13.2663 8.74934L11.0036 11.012C10.6567 11.3589 10.6567 11.9221 11.0036 12.269C11.3506 12.616 11.9137 12.616 12.2607 12.269L17.4464 7.08335C18.5123 6.01738 20.247 6.01738 21.313 7.08335L23.8748 9.64518ZM20.6846 19.4363L21.769 20.5207C22.116 20.8676 22.116 21.4308 21.769 21.7777C21.4221 22.1247 20.859 22.1247 20.512 21.7777L19.4276 20.6933C19.0807 20.3464 19.0807 19.7832 19.4276 19.4363C19.7746 19.0894 20.3377 19.0894 20.6846 19.4363ZM27.2314 11.7866C26.902 12.1159 26.8962 12.6347 27.1928 12.9816C27.1928 12.9816 28.5295 14.5764 28.9652 15.0658C29.4463 15.6088 29.7957 16.3739 29.8544 17.0142C29.939 17.9184 29.6784 18.5662 28.9242 19.3238C28.4289 19.8207 25.7539 22.4974 23.7326 24.5187C23.3848 24.8664 23.3848 25.4296 23.7318 25.7765C24.0787 26.1235 24.6419 26.1235 24.9888 25.7765C26.9397 23.8256 29.7161 21.0476 30.1837 20.5783C31.2991 19.4578 31.7575 18.272 31.6251 16.8491C31.5304 15.8275 31.0335 14.7205 30.2952 13.8867C29.9909 13.5444 29.2172 12.6407 28.7863 12.1375L28.7862 12.1374L28.7859 12.1371C28.6093 11.9308 28.4904 11.7919 28.485 11.7866C28.1389 11.4405 27.5775 11.4405 27.2314 11.7866ZM19.3154 28.9322C19.4805 28.7688 19.8207 28.4285 20.2674 27.9819C20.6143 27.6349 21.18 27.6324 21.5269 27.9794C21.8739 28.3263 21.8705 28.8928 21.5228 29.2406C21.0702 29.6931 20.74 30.0233 20.5708 30.1909C19.4495 31.3071 18.2637 31.7655 16.8399 31.6323C15.82 31.5376 14.7121 31.0415 13.8791 30.3024C13.5412 30.0031 12.6585 29.2474 12.1512 28.8132C11.9327 28.6261 11.7838 28.4986 11.7782 28.4931C11.4321 28.147 11.4321 27.5855 11.7782 27.2394C12.1076 26.91 12.6255 26.905 12.9741 27.2017C12.9741 27.2017 14.5688 28.5383 15.0582 28.9724C15.6013 29.4534 16.3656 29.8037 17.005 29.8616C17.9117 29.947 18.5587 29.6856 19.3154 28.9322Z" fill="white"/>
</svg>
