<svg width="16" height="26" viewBox="0 0 16 26" fill="none" xmlns="http://www.w3.org/2000/svg">
<path d="M14.6291 1.07882C14.9806 1.43044 15.178 1.90726 15.178 2.40445C15.178 2.90163 14.9806 3.37846 14.6291 3.73007L5.34781 13.0113L14.6291 22.2926C14.9706 22.6462 15.1596 23.1198 15.1553 23.6115C15.1511 24.1031 14.9539 24.5733 14.6062 24.921C14.2586 25.2686 13.7883 25.4658 13.2967 25.4701C12.8051 25.4744 12.3314 25.2854 11.9778 24.9438L1.37094 14.3369C1.01943 13.9853 0.821964 13.5085 0.821964 13.0113C0.821964 12.5141 1.01943 12.0373 1.37094 11.6857L11.9778 1.07882C12.3294 0.727313 12.8063 0.529846 13.3034 0.529846C13.8006 0.529846 14.2775 0.727313 14.6291 1.07882Z" fill="black"/>
</svg>
